<?xml version="1.0" encoding="UTF-8"?><svg id="Layer_1" xmlns="http://www.w3.org/2000/svg" viewBox="0 0 98.48 13.53"><defs><style>.cls-1{fill:#f2e4d4;}</style></defs><path class="cls-1" d="m25.66,8.53c-1.13,1.46-2.53,2.13-4.15,2.13-1.3,0-2.32-.41-3.09-1.13-.77-.72-1.13-1.63-1.13-2.78s.34-2.03,1.09-2.75c.75-.72,1.72-1.13,2.92-1.13,1.66,0,2.95.46,4.39,2.11l.09.11,2.62-1.1-.17-.24c-1.7-2.48-3.9-3.74-6.74-3.74-2.18,0-4,.7-5.42,2.09-1.24,1.21-1.87,2.78-1.87,4.66,0,.24.01.47.04.71l2.18,4.31c.06.05.11.1.17.14,1.48,1.08,3.17,1.62,5.02,1.62,1.39,0,2.63-.27,3.67-.81,1.05-.54,2.03-1.42,2.91-2.6l.06-.07-2.5-1.66-.11.14Z"/><path class="cls-1" d="m32.88.37v8.3c0,1.33-.75,1.99-2.03,1.99-.56,0-.98-.21-1.31-.43h0s-.05.08-.05.08c-.67.9-1.4,1.62-2.17,2.17.88.7,2.08,1.04,3.62,1.04,1.77,0,2.68-.4,3.64-1.21.97-.82,1.4-1.99,1.4-3.48V.37h-3.08Z"/><polygon class="cls-1" points="6.49 .41 0 13.14 3.49 13.14 4.54 11.01 9.77 11.01 8.47 8.34 5.86 8.34 7.79 4.42 7.83 4.42 12.17 13.14 15.73 13.14 9.24 .41 6.49 .41"/><polygon class="cls-1" points="42.72 1.39 39.69 1.39 39.69 .37 46.96 .37 46.96 1.39 43.93 1.39 43.93 9.45 42.72 9.45 42.72 1.39"/><polygon class="cls-1" points="52.56 9.45 51.42 9.45 50.08 4.22 50.06 4.22 48.74 9.45 47.57 9.45 45.45 2.87 46.65 2.87 48.14 8.25 48.16 8.25 49.49 2.87 50.67 2.87 52.04 8.25 52.07 8.25 53.54 2.87 54.66 2.87 52.56 9.45"/><path class="cls-1" d="m58.21,2.72c2.09,0,3.19,1.51,3.19,3.45s-1.11,3.43-3.19,3.43-3.19-1.51-3.19-3.43,1.11-3.45,3.19-3.45m0,5.93c1.13,0,2.05-.89,2.05-2.48s-.92-2.49-2.05-2.49-2.05.89-2.05,2.49.92,2.48,2.05,2.48"/><polygon class="cls-1" points="63.44 1.39 60.41 1.39 60.41 .37 67.67 .37 67.67 1.39 64.65 1.39 64.65 9.45 63.44 9.45 63.44 1.39"/><polygon class="cls-1" points="73.28 9.45 72.13 9.45 70.8 4.22 70.77 4.22 69.45 9.45 68.28 9.45 66.17 2.87 67.37 2.87 68.85 8.25 68.88 8.25 70.2 2.87 71.38 2.87 72.76 8.25 72.78 8.25 74.26 2.87 75.38 2.87 73.28 9.45"/><path class="cls-1" d="m81.7,7.36c-.29,1.45-1.34,2.24-2.81,2.24-2.1,0-3.09-1.45-3.15-3.46,0-1.97,1.3-3.42,3.09-3.42,2.33,0,3.04,2.17,2.98,3.76h-4.92c-.04,1.15.61,2.16,2.05,2.16.89,0,1.51-.43,1.7-1.28h1.07Zm-1.04-1.83c-.05-1.03-.83-1.86-1.9-1.86-1.13,0-1.81.85-1.88,1.86h3.78Z"/><path class="cls-1" d="m82.6,2.87h1.02v1.04h.03c.46-.81,1.19-1.2,2.14-1.2,1.73,0,2.26.99,2.26,2.4v4.32h-1.08v-4.45c0-.8-.51-1.32-1.34-1.32-1.31,0-1.95.88-1.95,2.06v3.71h-1.08V2.87Z"/><path class="cls-1" d="m90.85,2.87h1.31v.95h-1.31v4.08c0,.49.14.58.81.58h.5v.95h-.83c-1.12,0-1.56-.23-1.56-1.44V3.83h-1.12v-.95h1.12V.9h1.08v1.97Z"/><path class="cls-1" d="m95.62,10.33c-.5,1.28-.94,1.76-1.91,1.76-.25,0-.51-.02-.75-.11v-.99c.2.06.42.15.64.15.44,0,.69-.22.89-.6l.45-1.12-2.61-6.54h1.22l1.92,5.38h.03l1.84-5.38h1.14l-2.86,7.45Z"/></svg>