<?xml version="1.0" encoding="utf-8"?>
<!-- Generator: Adobe Illustrator 26.3.1, SVG Export Plug-In . SVG Version: 6.00 Build 0)  -->
<svg version="1.1" id="Layer_1" xmlns="http://www.w3.org/2000/svg" xmlns:xlink="http://www.w3.org/1999/xlink" x="0px" y="0px"
	 viewBox="0 0 517.4 87.9" style="enable-background:new 0 0 517.4 87.9;" xml:space="preserve">
<style type="text/css">
	.st0{fill:#FFFFFF;}
</style>
<g>
	<path class="st0" d="M11.3,1.6h8.6l24.6,63.6L69,1.6h8.6L48.2,76.5h-7.5L11.3,1.6z"/>
</g>
<g>
	<path class="st0" d="M139.3,75.6l-7.8-28.8h-0.1l-7.9,28.8h-4.8l-8.8-34.3h4.7l6.7,28.5h0.1l7.7-28.5h4.9l7.6,28.5h0.1l7-28.5h4.6
		L144,75.6H139.3z"/>
	<path class="st0" d="M171.5,74c-1.9,1.4-4.2,2.1-7,2.1c-2,0-3.7-0.3-5.2-1c-1.5-0.6-2.7-1.5-3.7-2.7c-1-1.2-1.7-2.5-2.2-4.1
		c-0.5-1.6-0.8-3.3-0.8-5.2c0-1.9,0.3-3.6,0.9-5.2c0.6-1.6,1.4-2.9,2.4-4.1c1-1.2,2.3-2,3.7-2.7c1.4-0.6,3-1,4.7-1
		c2.2,0,4,0.5,5.5,1.4c1.5,0.9,2.6,2.1,3.5,3.5c0.9,1.4,1.5,2.9,1.8,4.6c0.3,1.7,0.5,3.2,0.4,4.8h-18.6c0,1.1,0.1,2.1,0.4,3.1
		c0.3,1,0.8,1.8,1.4,2.6c0.6,0.8,1.5,1.4,2.4,1.8c1,0.4,2.2,0.7,3.5,0.7c1.7,0,3.1-0.4,4.2-1.2c1.1-0.8,1.8-2,2.2-3.6h4
		C174.6,70.5,173.4,72.6,171.5,74z M170.5,58.1c-0.4-0.9-0.9-1.6-1.5-2.2s-1.4-1.1-2.2-1.5c-0.8-0.4-1.8-0.6-2.8-0.6
		c-1.1,0-2,0.2-2.9,0.6c-0.8,0.4-1.6,0.9-2.2,1.5c-0.6,0.6-1.1,1.4-1.4,2.2c-0.4,0.8-0.6,1.8-0.6,2.7h14.3
		C171.1,59.9,170.9,59,170.5,58.1z"/>
	<path class="st0" d="M183.7,41.3v12.8h0.1c0.7-1.4,1.7-2.4,3.2-3s3-0.9,4.8-0.9c1.9,0,3.6,0.4,5,1.1c1.4,0.7,2.6,1.7,3.6,2.9
		c0.9,1.2,1.7,2.6,2.1,4.2c0.5,1.6,0.7,3.2,0.7,5c0,1.8-0.2,3.4-0.7,5c-0.5,1.6-1.2,2.9-2.1,4.1c-0.9,1.2-2.1,2.1-3.6,2.8
		c-1.4,0.7-3.1,1-5,1c-0.6,0-1.3-0.1-2-0.2c-0.8-0.1-1.5-0.3-2.2-0.6c-0.7-0.3-1.4-0.7-2.1-1.2c-0.7-0.5-1.2-1.1-1.7-1.8h-0.1v3.3
		h-4.1V41.3H183.7z M198.4,59.6c-0.3-1.1-0.8-2.1-1.4-3c-0.6-0.9-1.4-1.6-2.4-2.1c-1-0.5-2.1-0.8-3.4-0.8c-1.4,0-2.5,0.3-3.5,0.8
		c-1,0.5-1.7,1.3-2.4,2.1c-0.6,0.9-1,1.9-1.3,3c-0.3,1.1-0.4,2.3-0.4,3.4c0,1.2,0.1,2.4,0.4,3.5c0.3,1.1,0.7,2.1,1.4,3
		c0.6,0.9,1.4,1.6,2.4,2.1c1,0.5,2.2,0.8,3.6,0.8c1.4,0,2.6-0.3,3.5-0.8c0.9-0.5,1.7-1.3,2.3-2.2c0.6-0.9,1-1.9,1.2-3.1
		c0.3-1.2,0.4-2.3,0.4-3.6C198.9,61.8,198.7,60.7,198.4,59.6z"/>
	<path class="st0" d="M210.9,70.1c0.4,0.6,0.9,1.1,1.5,1.5c0.6,0.4,1.3,0.6,2.1,0.8c0.8,0.2,1.6,0.2,2.4,0.2c0.6,0,1.3,0,2-0.1
		c0.7-0.1,1.4-0.3,1.9-0.5c0.6-0.3,1.1-0.6,1.5-1.1c0.4-0.5,0.6-1.1,0.6-1.9c0-1.1-0.4-1.9-1.2-2.4c-0.8-0.5-1.8-1-3-1.3
		s-2.5-0.6-3.9-0.9c-1.4-0.3-2.7-0.7-3.9-1.2c-1.2-0.5-2.2-1.2-3-2.1c-0.8-0.9-1.2-2.1-1.2-3.7c0-1.2,0.3-2.3,0.8-3.2
		c0.6-0.9,1.3-1.6,2.2-2.2c0.9-0.6,1.9-1,3-1.2c1.1-0.3,2.2-0.4,3.3-0.4c1.4,0,2.7,0.1,3.9,0.4c1.2,0.2,2.2,0.7,3.1,1.2
		c0.9,0.6,1.6,1.4,2.2,2.4c0.5,1,0.9,2.3,1,3.8h-4.1c-0.1-0.8-0.3-1.5-0.6-2c-0.4-0.5-0.8-1-1.3-1.3c-0.5-0.3-1.1-0.6-1.8-0.7
		c-0.7-0.1-1.3-0.2-2-0.2c-0.6,0-1.2,0-1.8,0.1s-1.2,0.3-1.7,0.5c-0.5,0.2-0.9,0.6-1.2,1c-0.3,0.4-0.5,0.9-0.5,1.6
		c0,0.7,0.2,1.3,0.7,1.8c0.5,0.5,1.1,0.8,1.9,1.2c0.8,0.3,1.6,0.6,2.6,0.8c1,0.2,1.9,0.4,2.9,0.6c1,0.2,2,0.5,3,0.8
		c1,0.3,1.8,0.7,2.6,1.3c0.8,0.5,1.4,1.2,1.8,2c0.5,0.8,0.7,1.8,0.7,3c0,1.5-0.3,2.8-0.9,3.7c-0.6,1-1.4,1.8-2.4,2.4
		c-1,0.6-2.1,1-3.4,1.3c-1.3,0.2-2.5,0.4-3.8,0.4c-1.4,0-2.7-0.1-3.9-0.4c-1.2-0.3-2.4-0.8-3.3-1.4c-1-0.7-1.7-1.5-2.3-2.6
		c-0.6-1.1-0.9-2.4-1-3.9h4.1C210.3,68.7,210.5,69.4,210.9,70.1z"/>
	<path class="st0" d="M231.8,46.3v-5h4.1v5H231.8z M235.9,50.8v24.8h-4.1V50.8H235.9z"/>
	<path class="st0" d="M252.7,50.8v3.6h-4.9v15.4c0,0.5,0,0.9,0.1,1.2c0.1,0.3,0.2,0.5,0.5,0.7c0.2,0.2,0.5,0.3,0.9,0.3
		c0.4,0,0.9,0.1,1.6,0.1h1.9v3.6h-3.1c-1.1,0-2-0.1-2.7-0.2c-0.8-0.1-1.4-0.4-1.8-0.8c-0.5-0.4-0.8-0.9-1-1.6
		c-0.2-0.7-0.3-1.6-0.3-2.8V54.4h-4.2v-3.6h4.2v-7.4h4.1v7.4H252.7z"/>
	<path class="st0" d="M274.6,74c-1.9,1.4-4.2,2.1-7,2.1c-2,0-3.7-0.3-5.2-1c-1.5-0.6-2.7-1.5-3.7-2.7c-1-1.2-1.7-2.5-2.2-4.1
		c-0.5-1.6-0.8-3.3-0.8-5.2c0-1.9,0.3-3.6,0.9-5.2c0.6-1.6,1.4-2.9,2.4-4.1c1-1.2,2.3-2,3.7-2.7c1.4-0.6,3-1,4.7-1
		c2.2,0,4,0.5,5.5,1.4c1.5,0.9,2.6,2.1,3.5,3.5c0.9,1.4,1.5,2.9,1.8,4.6c0.3,1.7,0.5,3.2,0.4,4.8H260c0,1.1,0.1,2.1,0.4,3.1
		c0.3,1,0.8,1.8,1.4,2.6c0.6,0.8,1.5,1.4,2.4,1.8c1,0.4,2.2,0.7,3.5,0.7c1.7,0,3.1-0.4,4.2-1.2c1.1-0.8,1.8-2,2.2-3.6h4
		C277.6,70.5,276.4,72.6,274.6,74z M273.6,58.1c-0.4-0.9-0.9-1.6-1.5-2.2s-1.4-1.1-2.2-1.5c-0.8-0.4-1.8-0.6-2.8-0.6
		c-1.1,0-2,0.2-2.9,0.6c-0.8,0.4-1.6,0.9-2.2,1.5c-0.6,0.6-1.1,1.4-1.4,2.2c-0.4,0.8-0.6,1.8-0.6,2.7h14.3
		C274.2,59.9,273.9,59,273.6,58.1z"/>
	<path class="st0" d="M299.9,41.3v12.8h0.1c0.7-1.4,1.7-2.4,3.2-3s3-0.9,4.8-0.9c1.9,0,3.6,0.4,5,1.1c1.4,0.7,2.6,1.7,3.6,2.9
		c0.9,1.2,1.7,2.6,2.1,4.2c0.5,1.6,0.7,3.2,0.7,5c0,1.8-0.2,3.4-0.7,5c-0.5,1.6-1.2,2.9-2.1,4.1c-0.9,1.2-2.1,2.1-3.6,2.8
		c-1.4,0.7-3.1,1-5,1c-0.6,0-1.3-0.1-2-0.2c-0.8-0.1-1.5-0.3-2.2-0.6c-0.7-0.3-1.4-0.7-2.1-1.2c-0.7-0.5-1.2-1.1-1.7-1.8h-0.1v3.3
		h-4.1V41.3H299.9z M314.6,59.6c-0.3-1.1-0.8-2.1-1.4-3c-0.6-0.9-1.4-1.6-2.4-2.1c-1-0.5-2.1-0.8-3.4-0.8c-1.4,0-2.5,0.3-3.5,0.8
		c-1,0.5-1.7,1.3-2.4,2.1c-0.6,0.9-1,1.9-1.3,3c-0.3,1.1-0.4,2.3-0.4,3.4c0,1.2,0.1,2.4,0.4,3.5c0.3,1.1,0.7,2.1,1.4,3
		c0.6,0.9,1.4,1.6,2.4,2.1c1,0.5,2.2,0.8,3.6,0.8c1.4,0,2.6-0.3,3.5-0.8c0.9-0.5,1.7-1.3,2.3-2.2c0.6-0.9,1-1.9,1.2-3.1
		c0.3-1.2,0.4-2.3,0.4-3.6C315.1,61.8,314.9,60.7,314.6,59.6z"/>
	<path class="st0" d="M333.7,78.9c-0.5,1.2-1,2.2-1.4,3.1c-0.5,0.8-1,1.5-1.5,2c-0.6,0.5-1.2,0.9-1.9,1.2c-0.7,0.2-1.5,0.4-2.4,0.4
		c-0.5,0-1,0-1.4-0.1c-0.5-0.1-0.9-0.2-1.4-0.3v-3.7c0.4,0.2,0.8,0.3,1.2,0.4c0.5,0.1,0.9,0.2,1.2,0.2c0.8,0,1.5-0.2,2.1-0.6
		c0.6-0.4,1-1,1.3-1.7l1.7-4.2l-9.8-24.7h4.6l7.2,20.3h0.1l7-20.3h4.3L333.7,78.9z"/>
	<path class="st0" d="M369.9,75.6l-12-34.3h4.9l9.8,29.7h0.1l9.9-29.7h4.8l-12.2,34.3H369.9z"/>
	<path class="st0" d="M409.4,75.5c-0.7,0.4-1.7,0.6-2.9,0.6c-1.1,0-1.9-0.3-2.5-0.9s-0.9-1.6-0.9-2.9c-1.1,1.3-2.4,2.3-3.9,2.9
		c-1.5,0.6-3.1,0.9-4.8,0.9c-1.1,0-2.2-0.1-3.2-0.4c-1-0.3-1.9-0.7-2.6-1.2c-0.7-0.5-1.3-1.3-1.8-2.1c-0.4-0.9-0.6-1.9-0.6-3.2
		c0-1.4,0.2-2.6,0.7-3.5c0.5-0.9,1.1-1.6,1.9-2.2c0.8-0.6,1.7-1,2.7-1.3c1-0.3,2-0.5,3.1-0.7c1.1-0.2,2.2-0.4,3.2-0.5
		c1-0.1,1.9-0.3,2.7-0.5c0.8-0.2,1.4-0.5,1.8-0.9c0.4-0.4,0.7-1,0.7-1.8c0-0.9-0.2-1.6-0.5-2.2c-0.3-0.5-0.8-1-1.3-1.2
		c-0.5-0.3-1.1-0.5-1.8-0.6c-0.7-0.1-1.3-0.1-1.9-0.1c-1.7,0-3.2,0.3-4.3,1c-1.2,0.7-1.8,1.9-1.9,3.7h-4.1c0.1-1.5,0.4-2.8,1-3.9
		s1.3-1.9,2.3-2.6c1-0.7,2.1-1.1,3.3-1.4c1.2-0.3,2.6-0.4,4-0.4c1.1,0,2.2,0.1,3.3,0.2s2.1,0.5,3,1c0.9,0.5,1.6,1.2,2.2,2.1
		c0.5,0.9,0.8,2.1,0.8,3.5v12.7c0,1,0.1,1.7,0.2,2.1c0.1,0.4,0.5,0.7,1.1,0.7c0.4,0,0.8-0.1,1.2-0.2V75.5z M402.8,62.8
		c-0.5,0.4-1.2,0.7-2,0.8c-0.8,0.2-1.7,0.3-2.6,0.4c-0.9,0.1-1.8,0.2-2.8,0.4c-0.9,0.1-1.8,0.4-2.5,0.7c-0.7,0.3-1.3,0.8-1.8,1.4
		c-0.5,0.6-0.7,1.4-0.7,2.4c0,0.7,0.1,1.2,0.4,1.7c0.3,0.5,0.6,0.8,1.1,1.1c0.4,0.3,0.9,0.5,1.5,0.6c0.6,0.1,1.2,0.2,1.8,0.2
		c1.3,0,2.5-0.2,3.5-0.5c1-0.4,1.7-0.8,2.4-1.4s1.1-1.2,1.3-1.8s0.4-1.3,0.4-1.8V62.8z"/>
	<path class="st0" d="M417.3,50.8v3.4h0.1c0.7-1.4,1.7-2.4,3.2-3s3-0.9,4.8-0.9c1.9,0,3.6,0.4,5,1.1c1.4,0.7,2.6,1.7,3.6,2.9
		c0.9,1.2,1.7,2.6,2.1,4.2c0.5,1.6,0.7,3.2,0.7,5c0,1.8-0.2,3.4-0.7,5c-0.5,1.6-1.2,2.9-2.1,4.1c-0.9,1.2-2.1,2.1-3.6,2.8
		c-1.4,0.7-3.1,1-5,1c-0.6,0-1.3-0.1-2-0.2c-0.8-0.1-1.5-0.3-2.2-0.6c-0.7-0.3-1.4-0.7-2.1-1.2c-0.7-0.5-1.2-1.1-1.7-1.8h-0.1v12.8
		h-4.1V50.8H417.3z M431.9,59.6c-0.3-1.1-0.8-2.1-1.4-3c-0.6-0.9-1.4-1.6-2.4-2.1c-1-0.5-2.1-0.8-3.4-0.8c-1.4,0-2.5,0.3-3.5,0.8
		c-1,0.5-1.7,1.3-2.4,2.1c-0.6,0.9-1,1.9-1.3,3c-0.3,1.1-0.4,2.3-0.4,3.4c0,1.2,0.1,2.4,0.4,3.5c0.3,1.1,0.7,2.1,1.4,3
		c0.6,0.9,1.4,1.6,2.4,2.1c1,0.5,2.2,0.8,3.6,0.8c1.4,0,2.6-0.3,3.5-0.8c0.9-0.5,1.7-1.3,2.3-2.2c0.6-0.9,1-1.9,1.2-3.1
		c0.3-1.2,0.4-2.3,0.4-3.6C432.4,61.8,432.2,60.7,431.9,59.6z"/>
	<path class="st0" d="M440.7,58.1c0.5-1.6,1.3-3,2.3-4.1c1-1.2,2.3-2.1,3.8-2.8c1.5-0.7,3.2-1,5.2-1c2,0,3.7,0.3,5.2,1
		c1.5,0.7,2.7,1.6,3.8,2.8c1,1.2,1.8,2.5,2.3,4.1c0.5,1.6,0.8,3.3,0.8,5.1c0,1.8-0.3,3.5-0.8,5.1c-0.5,1.6-1.3,2.9-2.3,4.1
		c-1,1.2-2.3,2.1-3.8,2.7c-1.5,0.7-3.2,1-5.2,1c-2,0-3.7-0.3-5.2-1c-1.5-0.7-2.8-1.6-3.8-2.7c-1-1.2-1.8-2.5-2.3-4.1
		c-0.5-1.6-0.8-3.3-0.8-5.1C440,61.4,440.2,59.7,440.7,58.1z M444.9,67.2c0.4,1.2,1,2.1,1.7,2.9c0.7,0.8,1.5,1.4,2.5,1.8
		c0.9,0.4,1.9,0.6,3,0.6c1.1,0,2.1-0.2,3-0.6c0.9-0.4,1.8-1,2.5-1.8c0.7-0.8,1.3-1.8,1.7-2.9c0.4-1.2,0.6-2.5,0.6-4
		c0-1.5-0.2-2.8-0.6-4c-0.4-1.2-1-2.2-1.7-3c-0.7-0.8-1.5-1.4-2.5-1.8c-0.9-0.4-1.9-0.6-3-0.6c-1.1,0-2.1,0.2-3,0.6
		c-0.9,0.4-1.8,1-2.5,1.8c-0.7,0.8-1.3,1.8-1.7,3c-0.4,1.2-0.6,2.5-0.6,4C444.3,64.7,444.5,66.1,444.9,67.2z"/>
	<path class="st0" d="M485.4,75.6v-3.9h-0.1c-0.9,1.5-2,2.7-3.3,3.4c-1.3,0.7-2.9,1.1-4.8,1.1c-1.6,0-3-0.2-4.1-0.6
		c-1.1-0.4-2-1-2.6-1.8s-1.1-1.8-1.4-2.9c-0.3-1.1-0.4-2.3-0.4-3.7V50.8h4.1v16.8c0,1.5,0.4,2.8,1.3,3.6c0.9,0.9,2.1,1.3,3.7,1.3
		c1.2,0,2.3-0.2,3.2-0.6c0.9-0.4,1.7-0.9,2.3-1.6c0.6-0.7,1.1-1.5,1.4-2.5c0.3-0.9,0.5-2,0.5-3.1v-14h4.1v24.8H485.4z"/>
	<path class="st0" d="M498.9,50.8V56h0.1c1-2,2.2-3.5,3.6-4.5c1.4-1,3.3-1.4,5.5-1.3v4.3c-1.6,0-3,0.2-4.2,0.7
		c-1.2,0.4-2.1,1.1-2.8,2c-0.7,0.9-1.2,1.9-1.5,3.1c-0.3,1.2-0.5,2.6-0.5,4.2v11H495V50.8H498.9z"/>
</g>
</svg>
